<svg xmlns="http://www.w3.org/2000/svg" xmlns:xlink="http://www.w3.org/1999/xlink" width="160" height="26" viewBox="0 0 160 26">
    <defs>
        <path id="ujnc4ozkxa" d="M0 0L159.614 0 159.614 25.929 0 25.929z"/>
    </defs>
    <g fill="none" fill-rule="evenodd">
        <g>
            <g>
                <g>
                    <g transform="translate(-235 -19) translate(235 19)">
                        <mask id="3urhgc6zfb" fill="#fff">
                            <use xlink:href="#ujnc4ozkxa"/>
                        </mask>
                        <path fill="#281B1B" d="M28.195 22.103h1.547V20.97h-1.547v1.134zm-1.982 0h1.493V20.97h-1.493v1.134zm3.995-1.447c-.172-.111-.285-.167-.339-.167l-.2.258h-3.42l-.316-.202c-.055-.03-.124-.077-.209-.139l-.108-.083c.027.105.049.212.065.324.017.11.026.225.026.341v.79c0 .21-.012.56-.034 1.054-.037.861-.057 1.436-.057 1.725.012.043.023.07.035.083.035.05.095.074.182.074.153-.031.255-.075.305-.134.05-.059.075-.152.075-.28v-1.966h3.53v1.227c0 .166-.039.284-.114.355-.075.071-.207.107-.393.107l-.652-.056c-.03 0-.072.01-.126.027.011.013.024.022.035.029.06.036.14.076.236.119.259.104.434.245.525.424.024.05.054.12.09.213l.036.018c.079 0 .198-.046.358-.139.16-.092.272-.19.339-.294.066-.124.107-.231.122-.323s.023-.222.023-.388v-2.497c0-.018.027-.042.081-.073.109-.069.163-.124.163-.167 0-.061-.085-.148-.258-.26zM31.859 19.535c-.12-.085-.27-.188-.445-.31l-.39.554h-2.829v-.959h2.614c.103 0 .192-.006.268-.019.075-.012.113-.037.113-.073 0-.056-.118-.158-.354-.305-.115-.073-.263-.16-.444-.258l-.364.424h-1.833v-.95h2.858c.218 0 .361-.01.43-.032.07-.022.105-.05.105-.088 0-.055-.117-.157-.354-.304-.12-.074-.269-.16-.444-.258l-.399.451h-2.196v-.378c0-.024.05-.067.15-.128.099-.062.148-.112.148-.149 0-.061-.129-.134-.388-.22-.26-.087-.432-.13-.516-.13 0 .025.02.234.063.627.012.111.018.237.018.378h-2.48c-.06 0-.198-.012-.416-.037l-.335-.036c0 .05.037.121.11.217.071.095.131.143.18.143l.154-.037c.03-.013.196-.019.498-.019h2.289v.95H25.49c-.03 0-.205-.015-.524-.046-.067-.006-.127-.009-.182-.009 0 .07.038.146.114.228.075.082.146.123.212.123.036 0 .09-.022.164-.065h2.397v.959h-3.05l-.706-.047c.007.026.013.044.019.056.036.067.066.112.09.135.097.046.16.069.19.069l.145.027 1.154-.014c.72-.01 1.235-.013 1.543-.013h4.57c.18 0 .323-.008.43-.023.105-.016.158-.047.158-.096 0-.055-.118-.167-.354-.338M35.855 23.155h1.638v-1.07h-1.638v1.07zm0-1.264h1.638v-.977h-1.638v.977zm2.09 1.264h1.946v-1.07h-1.945v1.07zm0-1.264h1.946v-.977h-1.945v.977zm4.516-1.328l-.751-.074c-.561-.091-1.104-.273-1.629-.544-.41-.208-.736-.449-.978-.719-.036-.043-.078-.099-.126-.166h2.425c.024 0 .1-.008.227-.024.126-.015.19-.053.19-.115 0-.055-.11-.144-.326-.267-.09-.05-.226-.117-.408-.203l-.344.405h-3.438c.018-.018.094-.1.226-.249.042-.048.109-.122.2-.22l.212-.066c.081-.024.122-.055.122-.092s-.07-.097-.208-.184c-.253-.16-.413-.24-.48-.24 0 .098-.093.283-.28.554-.151.215-.283.38-.398.497h-2.271c-.06 0-.164-.007-.308-.022-.145-.015-.236-.023-.271-.023 0 .024.034.08.103.165.07.087.116.13.14.13.073-.019.248-.031.526-.038.277-.005.582-.008.913-.008h.969c-.08.092-.157.185-.235.277-.182.203-.384.407-.607.61-.284.258-.591.511-.923.758-.374.277-.651.462-.832.554-.024.019-.052.046-.082.083-.006.013-.018.03-.036.056l.135-.037c.23-.074.531-.222.906-.443.126-.075.295-.18.506-.315 0 .062.008.25.023.564.015.314.022.564.022.748 0 .204-.012.503-.036.897-.024.394-.036.69-.036.887.012.03.025.05.036.056.036.03.082.045.136.045.132 0 .237-.037.312-.115.075-.076.113-.186.113-.327h1.593v.82c0 .13.015.243.045.342.03.098.096.191.199.277.078.062.224.109.438.143.213.034.57.05 1.07.05h.334c1.185 0 1.812-.193 1.877-.58-.048-.105-.092-.204-.13-.296-.04-.091-.086-.43-.141-1.014-.018-.215-.045-.323-.081-.323l-.037.028-.09.719c-.06.468-.14.74-.24.816-.1.077-.296.136-.588.176-.293.04-.629.06-1.01.06-.3 0-.556-.015-.764-.042-.208-.028-.331-.068-.37-.12-.04-.052-.06-.14-.06-.263v-.793h1.946l-.027.23c.024.02.042.031.054.037.054.025.118.038.19.038.097-.025.172-.059.227-.102.054-.043.08-.114.08-.212 0-.252-.008-.634-.026-1.144-.019-.51-.027-.891-.027-1.144 0-.024.045-.058.136-.102.09-.042.135-.086.135-.128 0-.05-.085-.128-.253-.236-.17-.107-.278-.161-.326-.161l-.235.286h-1.873v-.812c0-.012.03-.04.09-.083.06-.043.09-.083.09-.12 0-.061-.095-.118-.284-.17-.191-.053-.325-.079-.403-.079l.054.388v.876H35.9l-.263-.286.67-.58.815-.794h1.665c.12.172.227.31.316.415.278.319.577.59.897.811.32.222.672.43 1.058.628.338.172.544.258.616.258.018-.006.069-.043.153-.111.043-.037.115-.095.218-.175.06-.043.155-.095.285-.157.13-.061.194-.101.194-.12l-.017-.018c-.013-.019-.027-.028-.046-.028z" mask="url(#3urhgc6zfb)"/>
                        <path fill="#281B1B" d="M33.756 17.15c0 .025.027.077.08.157.056.08.1.12.137.12l.136-.028h2.027l-.027.84c.04.043.084.064.13.064.146 0 .245-.034.298-.102.052-.067.079-.181.079-.34v-.462h2.09v.526c0 .11.007.216.022.318.015.102.077.153.186.153.126 0 .207-.032.244-.097.036-.065.055-.177.055-.337l-.028-.563h2.244c.139 0 .259-.005.358-.019.1-.012.149-.042.149-.091 0-.056-.11-.16-.33-.314-.22-.153-.354-.23-.403-.23l-.389.452h-1.63v-.305c0-.018.054-.057.16-.115.105-.059.158-.107.158-.144 0-.055-.126-.116-.38-.184-.253-.068-.432-.102-.534-.102 0 .068.02.197.059.388.039.19.059.344.059.462h-2.09v-.305c0-.012.043-.054.13-.125.088-.07.132-.127.132-.17 0-.061-.115-.12-.344-.176-.23-.055-.398-.082-.507-.082.024.055.044.113.06.175.014.062.022.132.022.212l.027.47h-1.892l-.488-.046zM54.976 17.76c0 .589-.2 1.073-.594 1.439-.397.368-.894.555-1.475.555-.502 0-.975-.163-1.407-.484-.484-.356-.719-.784-.719-1.31 0-.532.218-.996.65-1.381.434-.388.916-.585 1.434-.585.105 0 .218-.045.33-.129.04-.024.078-.053.117-.088.366.116.643.232.822.344.567.376.842.913.842 1.638m-.266-2.18c-.266-.14-.66-.272-1.172-.393-.006-.203-.094-.374-.262-.508-.168-.133-.35-.19-.576-.197-.025.006-.043.01-.046.012l-.036.006c-.032.013-.131.054-.131.149 0 .036.014.081.085.195.045.076.055.122.055.15 0 .02-.004.048-.032.079-.637.114-1.123.25-1.446.405-.988.484-1.49 1.242-1.49 2.253v.144c0 .791.334 1.478.992 2.04.652.557 1.44.84 2.34.84.827 0 1.543-.279 2.127-.829.585-.553.882-1.257.882-2.094v-.1c0-.953-.434-1.677-1.29-2.153M59.432 12.288c-.346-.104-.682-.192-1-.26-.318-.067-.607-.102-.855-.102-.125 0-.262.027-.42.084-.233.084-.282.218-.282.315v.066l.06.025 1.186.509c.488.21.526.34.526.376v10.523c0 .305.014.717.043 1.224.021.396.083.852.364.852.283 0 .466-.313.558-.958.048-.32.072-.774.072-1.347l.07-10.333.043-.464c0-.123-.027-.228-.079-.311-.055-.086-.15-.152-.286-.199M69.412 21.546c-.473 0-.927-.167-1.347-.496-.442-.351-.666-.744-.666-1.169 0-.536.251-.915.765-1.157.023-.007.208-.063 1.196-.34.095-.023.193-.087.302-.197l.085-.085c.327.014.672.206 1.025.571.303.315.456.712.456 1.18 0 .5-.173.897-.529 1.215-.355.317-.788.478-1.287.478m1.564-3.645c-.265-.14-.66-.268-1.172-.38v-.02c0-.142-.094-.274-.287-.405-.18-.121-.327-.18-.446-.18h-.042l-.037.029c-.052.034-.113.082-.113.154 0 .058.018.136.056.247-.002.104-.028.13-.035.134l-.054.028c-.562.115-.988.247-1.265.393-.865.456-1.303 1.156-1.303 2.08 0 .58.26 1.138.773 1.662.598.609 1.35.917 2.234.917.76 0 1.436-.224 2.014-.665.632-.485.952-1.11.952-1.856v-.072c0-.925-.429-1.62-1.275-2.066M77.799 18.31c-.174-.05-.418-.076-.726-.076h-.596l-.555.404-.716.061v-5.054c0-.138.013-.292.04-.457.04-.238.043-.311.043-.346 0-.301-.303-.538-.927-.726-.457-.135-.874-.205-1.236-.205-.143 0-.267.02-.37.056-.163.058-.209.157-.22.244 0 .077 0 .133.842.547.725.356.733.494.733.5l.085 10.422c0 .41.01.838.028 1.273.014.327.064.761.336.761.23 0 .394-.216.502-.662.095-.4.144-.904.144-1.501v-4.207l1.655-.067c.417 0 .703-.023.873-.067.193-.052.32-.184.366-.382l.017-.123c0-.196-.113-.336-.318-.395M68.46 14.629c.187.05.549.075 1.107.075.427 0 .8-.032 1.108-.094.133-.027.536-.107.536-.385 0-.299-.14-.422-.256-.472-.144-.062-.368-.092-.685-.092h-.675c-.248 0-.618-.034-1.099-.1-.491-.067-.851-.1-1.112-.1h-.01c-.06.008-.097.014-.126.014-.13.017-.197.069-.197.155 0 .095.07.23.579.563.366.241.638.384.83.436" mask="url(#3urhgc6zfb)"/>
                        <path fill="#281B1B" d="M72.98 15.501c-.233-.081-.609-.12-1.149-.12-.08 0-.243.025-.714.237-.135.062-.255.093-.355.093l-.03.004c-.036.011-.272.046-1.44.155-.913.085-1.496.127-1.737.127h-.576c-.126 0-.354-.019-.678-.056-.582-.068-.953-.101-1.137-.101-.204 0-.307.062-.307.184 0 .097.06.222.779.576.665.33.876.369.977.369.057 0 .16-.02.439-.17.182-.096.36-.146.554-.148.386-.094.982-.149 1.773-.163.815-.015 1.293-.031 1.453-.05.135 0 .317-.012.545-.036.276-.03.36-.035.377-.036l.913.072h.008c.216 0 .378-.032.496-.097.094-.051.206-.16.206-.389 0-.142-.069-.337-.397-.451M89.492 14.662v1.826l-4.42.124v-1.868l4.42-.082zm3.745 3.803c-.232-.048-.57-.074-1.004-.074-.155 0-.353.055-.601.167-.276.123-.422.15-.5.15l-3.466.166.088-1.676h1.804c.003.034.004.064.005.092.016.113.066.452.303.495h.07c.265 0 .453-.239.578-.732.075-.293.113-.582.113-.855l.057-2.997c0-.007.003-.049.047-.252.034-.161.051-.276.051-.352 0-.25-.223-.435-.664-.546-.4-.102-.767-.154-1.092-.154-.085 0-.182.019-.285.056-.17.06-.206.165-.206.243 0 .074 0 .118.75.505.12.06.263.155.263.27v1.007l-4.434.096v-.5c0-.021.01-.082.026-.186.02-.121.03-.216.03-.288 0-.309-.234-.52-.695-.627-.221-.049-.554-.074-.99-.074-.13 0-.278.018-.442.052-.262.055-.317.196-.317.305 0 .087.047.158.69.394.362.133.563.282.563.423v3.14c0 .244.019.504.057.773.016.12.067.486.32.486.216 0 .392-.128.52-.379.036-.064.07-.157.104-.283l1.631-.052.05 1.693h-3.486c-.277 0-.635-.025-1.065-.075-.436-.051-.873-.107-1.327-.169l-.082.001c-.177.024-.197.128-.197.171 0 .109.077.26.986.678.636.294 1.04.437 1.235.437.127 0 .263-.035.406-.103.153-.072.189-.083.201-.085.358-.066.68-.108.963-.128.82-.076 1.788-.114 2.874-.114.085 0 .608-.01 1.57-.029.956-.02 1.611-.029 1.946-.029h1.165l1.184.044c.281 0 .485-.034.627-.104.11-.054.244-.178.244-.453 0-.253-.225-.43-.668-.528zM90.456 20.866c-.276-.122-.468-.18-.586-.18l-.517.18c-.045.015-.333.05-1.753.121-1.134.057-1.876.086-2.2.086l-.762-.028c-.185 0-.413-.017-.678-.05-.27-.034-.566-.074-.883-.122l-.02-.003-.018.005-.047.011-.036.008c-.109.044-.131.113-.131.162 0 .123.123.267.722.568.463.234.778.348.964.348.129 0 .29-.05.493-.154.081-.04.122-.047.155-.048.221-.038.417-.061.585-.07.5-.048 1.037-.072 1.594-.072.263 0 .658-.008 1.184-.022.447-.012.776-.022.985-.031l.041 2.621c0 .368.026.697.079.979.043.231.116.496.299.496.238 0 .42-.234.557-.718.096-.351.145-.741.145-1.156l.056-2.024c0-.02.01-.082.1-.206.094-.129.14-.235.14-.324l-.002-.013c-.015-.12-.154-.229-.466-.364M113.08 18.378c-.076.618-.17 1.193-.28 1.711-.113.523-.216.975-.309 1.344l-.003.025c0 .08.04.212.318.212h.005c.339-.056.65-.634.977-1.82.308-1.111.573-2.536.789-4.234l.142-.218c.057-.088.086-.172.086-.248 0-.162-.157-.304-.495-.45-.307-.13-.522-.194-.656-.194-.065 0-.155.03-.295.096-.14.066-.21.086-.232.09l-2.258.144c-.262 0-.725.017-1.419.05-.67.034-1.177.05-1.503.05l-2.296-.1c-.155 0-.367.017-.427.16l-.008.039c0 .214.235.42.74.645.471.211.808.314 1.03.314.11 0 .232-.039.359-.114.141-.085.185-.087.202-.088.527-.068.926-.115 1.22-.143.886-.085 1.607-.128 2.143-.128.553 0 1.255-.024 2.082-.072.08 0 .175-.003.283-.008-.003.423-.027.92-.07 1.478-.046.604-.089 1.096-.126 1.459" mask="url(#3urhgc6zfb)"/>
                        <path fill="#281B1B" d="M116.173 22.337c-.312-.078-.785-.117-1.408-.117-.054 0-.168.018-.58.163-.36.125-.51.152-.58.152l-3.509.237.095-3.511.043-.412c0-.31-.263-.521-.781-.628-.24-.048-.601-.073-1.074-.073h-.056c-.117 0-.234.027-.35.08-.14.066-.211.15-.211.248 0 .109.105.21.658.436.523.212.538.34.538.354l.054 3.578c-.201.016-.368.027-.499.035-.846.057-1.553.086-2.103.086-.306 0-.68-.014-1.112-.042-.433-.029-.847-.063-1.237-.101-.087 0-.35 0-.35.184 0 .13.118.305.97.699.629.29 1.029.433 1.223.433.107 0 .22-.028.335-.082.308-.145.382-.175.382-.177l.024-.003c.321-.084.602-.147.835-.184.704-.114 1.48-.171 2.305-.171.37 0 .936-.02 1.68-.058 1.304-.066 2.145-.1 2.498-.1.138 0 .58.024 1.316.071.154.01.35.015.582.015.271 0 .47-.034.606-.104.108-.054.237-.175.237-.439 0-.198-.093-.458-.531-.569M130.216 20.788c-.254-.079-.433-.117-.547-.117-.025 0-.035 0-.279.117-.17.082-.254.099-.303.099l-1.52.129c-.234 0-.946.027-2.177.086-.393.019-.684.028-.865.028h-.084c-.195 0-.523-.019-.972-.057-.612-.051-.724-.057-.751-.057-.254 0-.307.106-.307.195 0 .079 0 .147.846.548.726.345.927.385 1.016.385.1 0 .22-.036.368-.11.153-.078.223-.1.258-.107.335-.067.601-.114.812-.142.624-.085 1.233-.128 1.81-.128.48 0 .873-.01 1.198-.03.279-.016.525-.032.739-.048v3.004c0 .304.007.593.02.859.022.403.183.487.315.487.235 0 .411-.21.522-.625.1-.374.151-.89.151-1.534l.084-2.193c.008-.015.034-.056.109-.159.05-.07.074-.133.074-.19l-.048-.148c-.04-.115-.185-.205-.47-.292M129.76 12.172c-.465-.116-.86-.175-1.177-.175-.064 0-.16.015-.294.046-.232.052-.266.2-.266.282 0 .095.062.192.834.507.661.27.712.427.712.468v3.834l-1.62.064V14.06c0-.021.006-.076.044-.207.048-.159.054-.218.054-.252 0-.235-.277-.429-.871-.61-.43-.126-.784-.19-1.054-.19-.086 0-.182.017-.296.054-.148.048-.223.126-.223.23 0 .09.055.19.717.505.546.261.605.416.605.47v3.923c-.131.062-.242.11-.333.144-.577.236-1.226.457-1.928.655-1.01.264-1.774.398-2.269.398-.135 0-.199-.027-.212-.05-.016-.03-.043-.109-.043-.31v-1.438l1.254-.04c.184 0 .362-.01.53-.03.408-.047.692-.07.848-.07.259 0 .435-.04.537-.122.109-.086.165-.213.165-.379 0-.253-.143-.33-.228-.353-.113-.03-.266-.046-.465-.046-.296 0-.587.065-.863.195-.313.147-.46.177-.534.177l-1.244.08v-1.666l2.766-.18c.177 0 .305-.006.394-.016.434-.056.525-.264.525-.428 0-.274-.157-.378-.288-.416-.155-.045-.35-.069-.582-.069-.255 0-.519.056-.782.165-.474.195-.84.294-1.093.294l-1.022.042c-.094-.035-.19-.076-.298-.124-.14-.04-.323-.061-.547-.061-.036 0-.124-.006-.342-.03-.183-.018-.316-.028-.403-.028-.111 0-.227.015-.347.046-.2.051-.242.158-.242.239 0 .087.047.172.638.407.487.195.514.293.515.297l.057 3.769c0 .232.06.487.177.757.13.295.312.446.54.446.254 0 .65-.064 1.182-.19.64-.152 1.233-.332 1.764-.534.65-.248 1.228-.495 1.716-.733.136-.062.29-.138.457-.227v.753c0 .894.112 1.274.374 1.274.308 0 .503-.357.593-1.094.038-.29.057-.727.057-1.295v-.338l1.62-.05v1.963c0 .288.035.487.106.609.099.17.233.205.329.205.226 0 .372-.364.49-1.217.075-.539.113-.997.113-1.36l.085-4.897.042-.308c0-.258-.31-.457-.974-.627" mask="url(#3urhgc6zfb)"/>
                        <path fill="#281B1B" d="M151.078 9.583c-1.448-.99-2.898-1.979-4.373-2.933-1.477-.95-2.947-1.93-4.527-2.724-.783-.407-1.583-.794-2.396-1.169-.826-.367-1.685-.692-2.525-.955-1.7-.532-3.433-.95-5.187-1.226-1.753-.284-3.527-.431-5.289-.486-1.758-.052-3.498-.04-5.237-.05L79.807 0 38.07.04c-1.74.01-3.48-.002-5.238.05-1.762.055-3.535.202-5.288.486-1.755.276-3.488.694-5.187 1.226-.84.263-1.7.588-2.526.955-.813.374-1.611.765-2.395 1.171-1.577.8-3.045 1.782-4.522 2.73C11.438 7.613 9.988 8.6 8.54 9.59 5.65 11.575 2.8 13.618 0 15.728c2.987-1.824 5.986-3.621 9.003-5.377 3.012-1.76 6.098-3.401 9.154-5l1.141-.607 1.156-.545c.768-.34 1.54-.634 2.362-.893 1.625-.508 3.285-.909 4.968-1.173 3.36-.57 6.804-.498 10.291-.518l41.732-.04 41.731.04c3.488.02 6.931-.052 10.291.518 1.684.264 3.343.665 4.969 1.173.821.259 1.593.553 2.361.893l1.156.547 1.14.606c1.506.84 3.07 1.6 4.592 2.444 1.531.827 3.046 1.693 4.56 2.562 3.016 1.755 6.016 3.552 9.007 5.37-2.797-2.115-5.645-4.16-8.536-6.145" mask="url(#3urhgc6zfb)"/>
                    </g>
                </g>
            </g>
        </g>
    </g>
</svg>
